<svg width="47" height="54" viewBox="0 0 47 54" fill="none" xmlns="http://www.w3.org/2000/svg">
<path d="M31.2813 25.6686C28.9143 27.5631 13.414 39.9741 9.82534 42.8496L3.75706 36.7813L21.01 15.3973L31.2813 25.6686ZM43.2265 3.46781C38.6028 -1.15594 31.1035 -1.15594 26.4798 3.46781C23.431 6.51881 23.1723 9.86231 23.0238 11.0481L35.6463 23.6706C36.7353 23.5491 40.1508 23.2903 43.2265 20.2146C47.8525 15.5908 47.8525 8.09156 43.2265 3.46781ZM21.1 43.8328C15.943 43.8328 13.5873 47.0436 10.264 49.1316C7.91054 50.6076 5.68306 49.8583 4.61206 48.5331C4.22281 48.0583 3.11131 46.3483 5.00356 44.3886L4.72231 44.1073L2.18881 41.6526C-0.898189 44.8386 -0.351439 48.6456 1.56106 51.0058C3.75481 53.7148 8.16704 55.0828 12.3498 52.4571C15.916 50.2183 17.4955 47.7591 21.1 47.7591C23.431 47.7591 25.555 48.8031 28.9413 53.9983L32.2285 51.8563C29.0943 47.0413 26.0005 43.8328 21.1 43.8328Z" fill="url(#paint0_linear)"/>
<defs>
<linearGradient id="paint0_linear" x1="23.348" y1="0" x2="23.348" y2="53.9983" gradientUnits="userSpaceOnUse">
<stop stop-color="#1E83E0"/>
<stop offset="1" stop-color="#BC3A80"/>
</linearGradient>
</defs>
</svg>
